<svg xmlns="http://www.w3.org/2000/svg" viewBox="-0.82604445 -0.82604445 142.1962589 29.1869039" width="1024" height="210">
  <defs />
  <path d="m 136.90234,0.00165004 c -1.13188,-0.0243 -2.47758,0.21995 -4.00195,0.72265 -0.22868,0.0802 -0.40946,0.20689 -0.57227,0.36718996 -1.55042,1.45549 -3.05869,2.99849 -4.48437,4.59375 l -0.10938,0.12109 c -0.0303,0.0343 -0.034,0.0854 -0.0117,0.125 0.0231,0.0401 0.0682,0.0608 0.11328,0.0508 l 0.16016,-0.0332 c 2.29758,-0.49117 4.61729,-0.86822 6.89258,-1.11719 0.14978,-0.0165 0.3043,0.0348 0.41601,0.13672 0.11171,0.10295 0.17684,0.24981 0.17383,0.40235 -0.0376,2.25825 0.043,4.52766 0.24414,6.74609 l 0.0137,0.14453 c 0.005,0.0443 0.0355,0.08 0.0801,0.0918 0.008,0.002 0.0154,0.004 0.0254,0.004 0.0336,5e-4 0.0674,-0.0154 0.0879,-0.0449 l 0.084,-0.11914 c 1.28191,-1.8292 2.67751,-3.60739 4.14453,-5.28906 0.16431,-0.1871 0.20747,-0.30479 0.23828,-0.47461 0.46187,-2.95607 -0.25097,-5.14227 -0.88867,-5.69530996 -0.5538,-0.48016 -1.35737,-0.70562 -2.60547,-0.73243 z m -3.51953,5.98827996 -0.14063,0.0195 c -2.19514,0.30232 -4.41734,0.72115 -6.60547,1.24414 -0.2169,0.0606 -0.35616,0.20156 -0.38671,0.23437 -1.63759,1.9612 -3.18865,4.02539 -4.61133,6.14063 -0.0711,0.10695 -0.0781,0.36328 -0.0781,0.36328 0,0 0.35692,2.75533 0.87891,4.78516 -1.29344,3.71976 -2.44727,8.62109 -2.44727,8.62109 -0.009,0.0318 -0.003,0.065 0.0156,0.0918 0.0195,0.0268 0.0504,0.0439 0.084,0.0449 h 0.73633 c 0.0466,7.5e-4 0.0872,-0.0275 0.10352,-0.0703 l 0.0508,-0.13867 c 0.75141,-2.04962 1.6079,-4.07296 2.55468,-6.04492 0.22042,-0.45937 0.68555,-1.38672 0.68555,-1.38672 0.0764,-0.15054 0.43327,-0.835 0.51367,-0.98828 l 0.0137,-0.0273 c 2.38399,-4.49723 5.2902,-8.73913 8.63476,-12.60743 l 0.0918,-0.10547 c 0.0283,-0.0336 0.0342,-0.0823 0.0137,-0.12109 -0.022,-0.0391 -0.0648,-0.0605 -0.10742,-0.0547 z m 1.01172,0.84765 c -0.0413,-0.0155 -0.0889,-0.005 -0.11719,0.0293 l -0.0918,0.10742 c -3.89985,4.51026 -7.17735,9.5163 -9.74218,14.87891 l -0.0606,0.125 c -0.0195,0.0396 -0.012,0.0873 0.0176,0.11914 0.0203,0.021 0.0471,0.0329 0.0762,0.0332 0.013,5e-4 0.0297,-0.002 0.043,-0.008 l 0.1289,-0.0547 c 2.19038,-0.90746 4.42795,-1.69372 6.65039,-2.33594 0.133,-0.0386 0.24378,-0.13092 0.30664,-0.2539 0.97434,-1.89883 3.23633,-5.57422 3.23633,-5.57422 0.0581,-0.0829 0.0449,-0.20703 0.0449,-0.20703 0,0 -0.39732,-4.39615 -0.42187,-6.6211 l -0.002,-0.14062 c -0.002,-0.0441 -0.0278,-0.0829 -0.0684,-0.0977 z m -5.78321,14.76367 -0.18164,0.0625 c -1.17747,0.39124 -2.91947,0.99259 -4.48242,1.71094 -0.0837,0.0393 -0.13867,0.14844 -0.13867,0.14844 -0.0291,0.0669 -0.0644,0.15046 -0.10547,0.24414 l -0.006,0.0117 c -0.17508,0.3985 -0.41804,0.99823 -0.52148,1.24219 l -0.0801,0.19336 c -0.0125,0.0306 -0.005,0.0648 0.0195,0.0879 0.0145,0.0138 0.0312,0.0207 0.0527,0.0215 0.011,0 0.0236,-0.002 0.0352,-0.008 l 0.18945,-0.0898 c 0.42756,-0.20339 0.96954,-0.51149 1.53711,-0.78125 l 0.0195,-0.01 c 1.07929,-0.51197 2.29737,-1.0898 3.03125,-1.43946 0,-5e-4 0.11813,-0.0637 0.17774,-0.18164 l 0.54883,-1.10156 c 0.0145,-0.0288 0.0103,-0.0633 -0.01,-0.0879 -0.0223,-0.024 -0.0554,-0.0335 -0.0859,-0.0234 z" style="stroke-width:0.02504723" />
  <path      d="m 27.87695,2.68524 v 18.2832 h 2.22852 V 19.6911 h 0.0508 c 0.8516,0.97684 2.40526,1.6543 3.75781,1.6543 3.50661,0 5.75977,-2.75565 5.75977,-7.01368 0,-4.13279 -2.35461,-7.01367 -5.71094,-7.01367 -1.3275,0 -2.72882,0.65241 -3.60547,1.6543 h -0.0508 V 2.68524 Z m 13.70118,0 v 2.58008 h 2.6289 V 2.68524 Z m 18.63476,0 v 18.2832 h 2.42969 V 12.6286 c 0,-1.8034 1.30275,-3.05664 3.15625,-3.05664 1.82845,0 2.88086,1.20233 2.88086,3.28125 v 8.11523 h 2.42969 V 12.2536 c 0,-3.03072 -1.8289,-4.93555 -4.73438,-4.93555 -1.47779,0 -2.98032,0.70124 -3.68164,1.70313 h -0.0508 V 2.68524 Z m 49.21875,0 v 6.28711 h -0.0508 c -0.87666,-1.02694 -2.25453,-1.6543 -3.58204,-1.6543 -3.35632,0 -5.73632,2.93098 -5.73632,7.01367 0,4.25803 2.2551,7.01368 5.76171,7.01368 1.35255,0 2.90426,-0.67746 3.75586,-1.6543 h 0.0508 v 1.27734 h 2.22851 V 2.68524 Z M 0,3.43719 v 17.53125 h 2.50391 v -6.9375 h 3.58203 c 2.75519,0 3.75781,1.10244 3.75781,4.15821 v 2.77929 h 2.42969 v -2.77929 c 0,-2.79878 -0.85449,-4.4605 -2.70899,-5.14454 1.90109,-0.666 3.20899,-2.23362 3.20899,-4.52343 0,-3.10586 -2.30531,-5.08399 -5.91211,-5.08399 z m 2.50391,2.2793 h 4.13281 c 2.37949,0 3.60742,1.02586 3.60742,3.05469 0,1.95368 -1.25264,3.03125 -3.58203,3.03125 h -4.1582 z m 17.48242,1.60156 c -3.6068,0 -6.08594,2.88088 -6.08594,7.01367 0,4.23299 2.404,7.01368 6.08594,7.01368 3.63185,0 6.01172,-2.78069 6.01172,-7.01368 0,-4.13279 -2.45502,-7.01367 -6.01172,-7.01367 z m 32.9375,0 c -1.40265,0 -2.90449,0.67746 -3.63086,1.6543 h -0.0508 V 7.695 h -2.37891 v 13.27344 h 2.42969 V 12.6286 c 0,-1.87854 1.22761,-3.05664 3.15625,-3.05664 1.90359,0 2.80469,1.10386 2.80469,3.4082 v 7.98828 h 2.45507 v -8.6914 c 0,-3.05577 -1.85463,-4.95899 -4.78515,-4.95899 z m 26.02344,0 c -3.60681,0 -6.08594,2.88088 -6.08594,7.01367 0,4.23299 2.40399,7.01368 6.08594,7.01368 3.63184,0 6.01171,-2.78069 6.01171,-7.01368 0,-4.13279 -2.45501,-7.01367 -6.01171,-7.01367 z m 13.60156,0 c -3.6068,0 -6.08594,2.88088 -6.08594,7.01367 0,4.23299 2.404,7.01368 6.08594,7.01368 3.63185,0 6.01172,-2.78069 6.01172,-7.01368 0,-4.13279 -2.45502,-7.01367 -6.01172,-7.01367 z M 41.67773,7.695 v 13.27344 h 2.42969 V 7.695 Z m -21.6914,1.85352 c 2.20415,0 3.60742,1.87773 3.60742,4.7832 0,2.93053 -1.40327,4.8086 -3.60742,4.8086 -2.2793,0 -3.68164,-1.85302 -3.68164,-4.8086 0,-2.95557 1.40234,-4.7832 3.68164,-4.7832 z m 13.55078,0 c 2.37949,0 3.70703,1.72744 3.70703,4.7832 0,3.08081 -1.32754,4.8086 -3.70703,4.8086 -1.82845,0 -3.23047,-1.25118 -3.23047,-2.9043 v -3.55664 c 0,-1.77835 1.40202,-3.13086 3.23047,-3.13086 z m 45.41016,0 c 2.20415,0 3.60742,1.87773 3.60742,4.7832 0,2.93053 -1.40327,4.8086 -3.60742,4.8086 -2.2793,0 -3.68164,-1.85302 -3.68164,-4.8086 0,-2.95557 1.40234,-4.7832 3.68164,-4.7832 z m 13.60156,0 c 2.20415,0 3.60742,1.87773 3.60742,4.7832 0,2.93053 -1.40327,4.8086 -3.60742,4.8086 -2.2793,0 -3.68164,-1.85302 -3.68164,-4.8086 0,-2.95557 1.40234,-4.7832 3.68164,-4.7832 z m 13.65038,0 c 1.82845,0 3.23243,1.35251 3.23243, 3.13086 v 3.55664 c 0,1.65312 -1.40398,2.9043 -3.23243,2.9043 -2.37948,0 -3.70703,-1.72779 -3.70703,-4.8086 0,-3.05576 1.32755,-4.7832 3.70703,-4.7832 z" style="stroke-width:0.02504723" />
</svg>

